<?xml version="1.0" standalone="no"?>
<!DOCTYPE svg PUBLIC "-//W3C//DTD SVG 1.1//EN" "http://www.w3.org/Graphics/SVG/1.1/DTD/svg11.dtd">
<svg version="1.1" xmlns="http://www.w3.org/2000/svg" viewBox="0 0 618.164482746888 281.3493819744809" width="618.164482746888" height="281.3493819744809"><!-- svg-source:excalidraw --><metadata></metadata><defs><style class="style-fonts">
      </style></defs><g transform="translate(14.766268364259531 75.93315176640459) rotate(0 77.45156546494275 42.89622588456996)" stroke="none"><path fill="#ffffff" d="M 1.62,0 Q 1.62,0 1.59,2.05 1.57,4.10 1.78,6.03 1.99,7.96 2.50,9.85 3.02,11.73 3.32,13.59 3.62,15.45 3.69,18.33 3.76,21.21 4.00,24.43 4.24,27.64 4.56,31.07 4.88,34.49 5.24,38.01 5.60,41.52 6.20,45.96 6.80,50.40 7.51,54.80 8.22,59.19 8.75,63.84 9.28,68.48 9.96,73.63 10.64,78.78 11.15,84.43 11.67,90.07 12.12,95.43 12.57,100.80 12.99,106.27 13.40,111.75 13.81,117.05 14.21,122.34 14.61,126.87 15.01,131.40 15.19,135.18 15.36,138.96 15.43,141.71 15.50,144.46 15.81,146.23 16.12,148.00 16.35,148.99 16.58,149.99 16.58,150.19 16.58,150.39 16.54,150.59 16.50,150.78 16.41,150.96 16.32,151.14 16.18,151.30 16.05,151.45 15.89,151.57 15.73,151.68 15.54,151.76 15.35,151.83 15.16,151.86 14.96,151.89 14.76,151.87 14.56,151.85 14.37,151.78 14.18,151.71 14.01,151.60 13.84,151.49 13.71,151.34 13.57,151.19 13.47,151.02 13.38,150.84 13.33,150.65 13.27,150.45 13.34,148.37 13.41,146.28 13.02,143.40 12.62,140.51 12.23,136.22 11.84,131.93 11.46,127.15 11.08,122.36 10.69,116.89 10.31,111.43 9.92,105.45 9.53,99.47 8.69,93.33 7.85,87.18 7.04,80.66 6.22,74.14 5.65,67.92 5.08,61.70 4.15,56.15 3.23,50.60 2.61,45.45 1.98,40.30 1.49,36.06 1.00,31.82 0.12,27.81 -0.76,23.79 -1.15,20.86 -1.53,17.93 -2.14,15.64 -2.74,13.36 -3.30,11.70 -3.85,10.05 -4.38,8.69 -4.90,7.33 -5.30,5.95 -5.71,4.57 -6.13,2.34 -6.56,0.11 -5.96,-1.57 -5.37,-3.26 -4.30,-5.15 -3.24,-7.04 -2.09,-9.32 -0.94,-11.59 0.51,-14.41 1.96,-17.23 4.70,-21.24 7.45,-25.26 10.21,-29.20 12.97,-33.15 16.01,-36.91 19.05,-40.67 21.70,-44.06 24.35,-47.46 26.64,-50.28 28.92,-53.10 31.34,-55.29 33.75,-57.47 35.91,-59.29 38.06,-61.11 39.95,-62.38 41.83,-63.65 43.60,-64.50 45.37,-65.36 47.04,-65.99 48.72,-66.62 49.96,-66.98 51.20,-67.34 52.48,-67.30 53.77,-67.25 55.28,-66.41 56.79,-65.56 58.13,-63.87 59.48,-62.18 60.68,-59.51 61.88,-56.83 63.01,-54.15 64.14,-51.46 65.51,-48.01 66.89,-44.56 68.81,-40.64 70.72,-36.71 72.87,-33.25 75.02,-29.79 77.49,-26.76 79.96,-23.74 82.37,-21.07 84.78,-18.40 87.15,-16.15 89.52,-13.90 91.63,-12.28 93.73,-10.67 95.56,-9.28 97.39,-7.89 99.23,-6.89 101.06,-5.89 102.98,-5.01 104.90,-4.12 107.27,-3.31 109.64,-2.49 112.93,-1.45 116.23,-0.41 120.48,-0.00 124.73,0.41 129.74,0.60 134.76,0.78 139.61,0.64 144.45,0.49 148.33,0.20 152.20,-0.08 154.19,-0.64 156.19,-1.20 157.73,-1.72 159.27,-2.24 159.51,-2.26 159.75,-2.29 159.99,-2.24 160.22,-2.18 160.43,-2.06 160.64,-1.93 160.80,-1.75 160.95,-1.56 161.04,-1.33 161.13,-1.11 161.14,-0.87 161.16,-0.62 161.09,-0.39 161.03,-0.15 160.89,0.04 160.75,0.24 160.56,0.38 160.36,0.53 160.13,0.61 159.90,0.68 159.66,0.68 159.42,0.68 159.19,0.60 158.96,0.53 158.76,0.38 158.57,0.23 158.43,0.03 158.30,-0.16 158.23,-0.40 158.17,-0.63 158.18,-0.87 158.20,-1.12 158.29,-1.34 158.38,-1.57 158.54,-1.75 158.70,-1.94 158.90,-2.06 159.11,-2.19 159.35,-2.24 159.59,-2.29 159.83,-2.26 160.07,-2.24 160.29,-2.13 160.51,-2.03 160.69,-1.86 160.86,-1.69 160.98,-1.48 161.09,-1.26 161.13,-1.02 161.17,-0.78 161.13,-0.54 161.09,-0.30 160.97,-0.09 160.86,0.11 160.68,0.28 160.50,0.45 160.28,0.55 160.06,0.65 160.06,0.65 160.06,0.65 158.47,0.99 156.88,1.33 154.64,1.93 152.40,2.53 148.47,2.83 144.53,3.12 139.60,3.27 134.66,3.42 129.56,3.23 124.46,3.04 119.95,2.57 115.45,2.10 112.11,1.05 108.77,0.01 106.28,-0.85 103.79,-1.71 101.78,-2.63 99.78,-3.55 97.78,-4.64 95.77,-5.74 93.93,-7.13 92.09,-8.52 89.86,-10.21 87.64,-11.91 85.18,-14.22 82.73,-16.53 80.25,-19.23 77.76,-21.93 75.16,-25.08 72.55,-28.24 70.28,-31.80 68.01,-35.36 65.98,-39.35 63.95,-43.34 62.50,-46.71 61.04,-50.07 59.80,-52.66 58.57,-55.25 57.42,-57.47 56.28,-59.69 55.33,-60.91 54.38,-62.13 53.11,-62.98 51.84,-63.82 50.78,-63.72 49.72,-63.62 48.14,-63.15 46.55,-62.69 44.94,-62.05 43.33,-61.41 41.58,-60.22 39.82,-59.04 37.71,-57.23 35.60,-55.43 33.35,-53.39 31.11,-51.34 28.86,-48.52 26.62,-45.70 24.00,-42.26 21.37,-38.82 18.44,-35.11 15.52,-31.40 12.84,-27.42 10.16,-23.44 7.63,-19.57 5.11,-15.70 3.82,-12.86 2.53,-10.01 1.54,-7.57 0.54,-5.12 -0.21,-3.42 -0.97,-1.73 -1.44,-0.34 -1.91,1.03 -1.95,2.26 -1.99,3.49 -1.87,4.92 -1.74,6.34 -1.39,7.79 -1.04,9.23 -0.62,10.96 -0.19,12.69 0.43,15.13 1.07,17.58 1.44,20.40 1.81,23.22 2.72,27.37 3.63,31.52 4.12,35.75 4.62,39.97 5.24,45.07 5.86,50.16 6.80,55.81 7.74,61.46 8.32,67.63 8.90,73.80 9.73,80.31 10.55,86.81 11.42,93.05 12.29,99.29 12.70,105.26 13.11,111.22 13.53,116.67 13.95,122.11 14.38,126.88 14.81,131.64 15.25,135.85 15.70,140.05 16.20,143.18 16.71,146.32 16.64,148.15 16.58,149.99 16.58,150.19 16.58,150.39 16.54,150.59 16.50,150.78 16.41,150.96 16.32,151.14 16.18,151.30 16.05,151.45 15.89,151.57 15.73,151.68 15.54,151.76 15.35,151.83 15.16,151.86 14.96,151.89 14.76,151.87 14.56,151.85 14.37,151.78 14.18,151.71 14.01,151.60 13.84,151.49 13.71,151.34 13.57,151.19 13.47,151.02 13.38,150.84 13.33,150.65 13.27,150.45 13.28,149.42 13.29,148.39 13.08,146.46 12.87,144.53 12.80,141.81 12.73,139.08 12.56,135.36 12.39,131.63 11.99,127.09 11.58,122.55 11.17,117.25 10.77,111.95 10.35,106.49 9.93,101.02 9.48,95.67 9.03,90.31 8.51,84.72 7.99,79.13 7.30,73.96 6.61,68.79 6.07,64.21 5.54,59.63 4.81,55.20 4.08,50.78 3.45,46.30 2.82,41.81 2.43,38.30 2.04,34.78 1.67,31.33 1.31,27.89 1.01,24.60 0.70,21.32 0.57,18.60 0.44,15.87 0.27,14.20 0.10,12.54 -0.48,10.43 -1.08,8.31 -1.32,6.21 -1.57,4.11 -1.59,2.05 -1.62,0 -1.60,-0.19 -1.57,-0.38 -1.50,-0.57 -1.43,-0.75 -1.32,-0.91 -1.21,-1.07 -1.06,-1.20 -0.92,-1.33 -0.74,-1.42 -0.57,-1.51 -0.38,-1.56 -0.19,-1.61 0.00,-1.61 0.19,-1.61 0.38,-1.56 0.57,-1.51 0.74,-1.42 0.92,-1.33 1.06,-1.20 1.21,-1.07 1.32,-0.91 1.43,-0.75 1.50,-0.57 1.57,-0.38 1.60,-0.19 1.62,0.00 1.62,0.00 L 1.62,0 Z"></path></g><g transform="translate(28.270619638821813 152.19312741303054) rotate(0 36.93843588374938 -13.504381577564914)" stroke="none"><path fill="#ffffff" d="M -0.52,-1.58 Q -0.52,-1.58 0.81,-2.11 2.16,-2.64 3.85,-3.28 5.54,-3.91 7.14,-4.63 8.73,-5.35 11.07,-6.29 13.40,-7.22 16.40,-8.72 19.41,-10.21 23.95,-12.23 28.48,-14.25 33.42,-16.03 38.36,-17.80 42.50,-19.23 46.65,-20.65 50.71,-21.94 54.77,-23.23 58.30,-24.45 61.83,-25.67 65.24,-26.44 68.65,-27.21 71.11,-27.76 73.58,-28.31 73.79,-28.33 74.01,-28.34 74.22,-28.28 74.43,-28.23 74.61,-28.10 74.79,-27.98 74.92,-27.81 75.05,-27.64 75.13,-27.43 75.20,-27.23 75.20,-27.01 75.20,-26.79 75.13,-26.59 75.06,-26.38 74.93,-26.21 74.80,-26.03 74.62,-25.91 74.44,-25.79 74.23,-25.73 74.02,-25.67 73.81,-25.68 73.59,-25.69 73.39,-25.77 73.19,-25.85 73.02,-25.99 72.85,-26.13 72.74,-26.31 72.63,-26.50 72.58,-26.71 72.53,-26.92 72.55,-27.14 72.58,-27.36 72.67,-27.55 72.76,-27.75 72.90,-27.91 73.05,-28.07 73.24,-28.17 73.44,-28.27 73.65,-28.31 73.86,-28.35 74.08,-28.31 74.29,-28.28 74.49,-28.18 74.68,-28.08 74.83,-27.92 74.98,-27.76 75.07,-27.57 75.16,-27.37 75.19,-27.15 75.21,-26.94 75.17,-26.73 75.12,-26.51 75.01,-26.33 74.90,-26.14 74.74,-26.00 74.57,-25.86 74.37,-25.78 74.17,-25.69 74.17,-25.69 74.17,-25.69 71.71,-25.13 69.24,-24.57 65.99,-23.83 62.73,-23.09 59.17,-21.84 55.62,-20.58 51.60,-19.28 47.58,-17.97 43.47,-16.52 39.36,-15.06 34.55,-13.28 29.74,-11.49 25.30,-9.44 20.87,-7.39 17.81,-5.75 14.75,-4.12 12.49,-3.06 10.22,-2.00 8.52,-1.26 6.83,-0.51 5.07,0.15 3.31,0.81 1.92,1.20 0.52,1.58 0.33,1.62 0.13,1.66 -0.06,1.65 -0.26,1.64 -0.46,1.59 -0.65,1.53 -0.82,1.43 -1.00,1.33 -1.14,1.19 -1.29,1.05 -1.40,0.88 -1.50,0.71 -1.57,0.52 -1.63,0.33 -1.65,0.13 -1.66,-0.06 -1.63,-0.26 -1.60,-0.46 -1.52,-0.65 -1.44,-0.83 -1.32,-0.99 -1.20,-1.15 -1.04,-1.28 -0.89,-1.41 -0.70,-1.49 -0.52,-1.58 -0.52,-1.58 L -0.52,-1.58 Z"></path></g><g transform="translate(195.08940632785493 191.91187893351395) rotate(0 33.363727034804015 9.929687880120895)" stroke="none"><path fill="#ffffff" d="M -1.54,0.66 Q -1.54,0.66 -2.26,-0.92 -2.98,-2.50 -3.73,-4.06 -4.49,-5.61 -5.25,-7.47 -6.01,-9.33 -6.76,-11.28 -7.51,-13.22 -8.27,-15.45 -9.03,-17.68 -9.99,-19.69 -10.95,-21.69 -11.83,-23.75 -12.71,-25.82 -13.73,-27.78 -14.76,-29.74 -15.69,-31.51 -16.62,-33.27 -17.15,-34.81 -17.68,-36.35 -18.48,-37.38 -19.29,-38.42 -19.98,-39.42 -20.67,-40.42 -21.27,-41.61 -21.86,-42.80 -22.97,-44.63 -24.08,-46.46 -25.57,-48.33 -27.06,-50.20 -27.91,-50.91 -28.75,-51.62 -29.87,-52.73 -30.99,-53.83 -32.08,-54.32 -33.17,-54.81 -34.37,-55.28 -35.57,-55.76 -36.62,-56.18 -37.66,-56.61 -39.30,-56.71 -40.94,-56.81 -42.58,-55.94 -44.22,-55.07 -45.99,-53.86 -47.76,-52.65 -49.86,-50.85 -51.96,-49.06 -54.00,-46.98 -56.04,-44.90 -57.79,-42.51 -59.55,-40.11 -61.22,-37.29 -62.89,-34.48 -64.29,-31.71 -65.69,-28.94 -66.49,-26.05 -67.28,-23.16 -67.63,-20.60 -67.98,-18.04 -68.14,-14.69 -68.30,-11.35 -67.70,-8.46 -67.10,-5.57 -65.73,-2.10 -64.37,1.36 -62.44,4.86 -60.51,8.36 -58.11,11.88 -55.72,15.41 -53.34,18.49 -50.96,21.58 -48.37,24.47 -45.78,27.36 -43.59,29.23 -41.40,31.09 -39.54,32.58 -37.69,34.08 -36.49,34.54 -35.30,35.00 -34.27,35.40 -33.24,35.80 -32.03,35.14 -30.82,34.47 -29.50,33.00 -28.19,31.54 -26.92,29.39 -25.65,27.23 -24.13,24.67 -22.62,22.10 -21.08,18.80 -19.54,15.49 -18.43,12.30 -17.32,9.12 -16.38,5.94 -15.44,2.76 -14.34,-0.44 -13.24,-3.66 -12.80,-6.50 -12.35,-9.34 -12.16,-11.69 -11.96,-14.04 -11.87,-16.39 -11.79,-18.75 -11.79,-20.67 -11.80,-22.59 -12.10,-23.97 -12.40,-25.35 -12.59,-26.43 -12.79,-27.51 -12.79,-27.73 -12.79,-27.95 -12.75,-28.16 -12.70,-28.38 -12.60,-28.57 -12.50,-28.77 -12.36,-28.94 -12.22,-29.11 -12.04,-29.23 -11.86,-29.36 -11.66,-29.44 -11.45,-29.53 -11.24,-29.56 -11.02,-29.59 -10.80,-29.57 -10.58,-29.54 -10.37,-29.47 -10.17,-29.40 -9.98,-29.27 -9.80,-29.15 -9.65,-28.99 -9.50,-28.83 -9.40,-28.64 -9.29,-28.45 -9.24,-28.23 -9.18,-28.02 -8.79,-26.14 -8.40,-24.26 -7.18,-21.41 -5.96,-18.56 -4.32,-15.02 -2.67,-11.48 -0.82,-7.19 1.01,-2.91 3.57,1.56 6.13,6.05 9.25,10.69 12.38,15.33 16.41,20.24 20.45,25.15 25.10,29.72 29.75,34.29 35.12,38.73 40.50,43.17 45.99,47.59 51.48,52.00 56.75,55.68 62.02,59.36 66.76,62.28 71.49,65.21 76.43,67.57 81.36,69.93 85.94,71.61 90.51,73.29 94.53,74.70 98.54,76.10 102.64,76.67 106.74,77.24 110.99,77.49 115.24,77.74 119.49,77.40 123.74,77.05 127.29,76.01 130.83,74.97 133.55,74.19 136.26,73.40 136.47,73.38 136.68,73.35 136.89,73.40 137.10,73.44 137.28,73.55 137.47,73.66 137.61,73.82 137.75,73.98 137.83,74.17 137.91,74.37 137.92,74.58 137.94,74.79 137.88,75.00 137.83,75.21 137.71,75.38 137.59,75.56 137.42,75.69 137.26,75.82 137.05,75.89 136.85,75.96 136.64,75.96 136.43,75.97 136.23,75.90 136.02,75.83 135.85,75.71 135.68,75.58 135.56,75.41 135.44,75.23 135.38,75.03 135.32,74.82 135.33,74.61 135.34,74.40 135.42,74.20 135.49,74.00 135.63,73.84 135.77,73.67 135.95,73.56 136.13,73.45 136.34,73.40 136.54,73.35 136.75,73.38 136.97,73.40 137.16,73.48 137.35,73.57 137.51,73.72 137.67,73.86 137.77,74.05 137.87,74.23 137.91,74.44 137.94,74.65 137.91,74.86 137.88,75.07 137.78,75.26 137.68,75.45 137.53,75.60 137.38,75.75 137.18,75.84 136.99,75.93 136.99,75.93 136.99,75.93 134.28,76.71 131.56,77.50 127.76,78.58 123.96,79.67 119.53,80.02 115.09,80.37 110.73,80.11 106.37,79.85 102.02,79.22 97.68,78.60 93.64,77.19 89.60,75.77 84.91,74.05 80.21,72.32 75.16,69.90 70.10,67.47 65.30,64.51 60.50,61.55 55.15,57.82 49.80,54.10 44.29,49.68 38.77,45.27 33.30,40.76 27.82,36.25 23.06,31.59 18.30,26.92 14.16,21.92 10.02,16.93 6.81,12.22 3.59,7.51 0.91,2.91 -1.76,-1.68 -3.66,-5.89 -5.55,-10.09 -7.31,-13.62 -9.08,-17.15 -10.52,-20.20 -11.96,-23.24 -12.37,-25.38 -12.79,-27.51 -12.79,-27.73 -12.79,-27.95 -12.75,-28.16 -12.70,-28.38 -12.60,-28.57 -12.50,-28.77 -12.36,-28.94 -12.22,-29.10 -12.04,-29.23 -11.86,-29.36 -11.66,-29.44 -11.45,-29.53 -11.24,-29.56 -11.02,-29.59 -10.80,-29.57 -10.58,-29.54 -10.38,-29.47 -10.17,-29.40 -9.99,-29.27 -9.80,-29.15 -9.65,-28.99 -9.50,-28.83 -9.40,-28.64 -9.29,-28.45 -9.24,-28.23 -9.18,-28.02 -9.19,-26.91 -9.21,-25.80 -9.08,-24.17 -8.95,-22.54 -9.03,-20.60 -9.10,-18.66 -9.18,-16.24 -9.26,-13.82 -9.45,-11.37 -9.65,-8.92 -10.12,-5.85 -10.60,-2.78 -11.66,0.38 -12.71,3.55 -13.63,6.81 -14.55,10.06 -15.66,13.40 -16.77,16.75 -18.31,20.21 -19.84,23.67 -21.26,26.28 -22.69,28.90 -24.03,31.40 -25.37,33.91 -26.98,35.89 -28.58,37.86 -30.42,38.75 -32.27,39.64 -33.54,39.30 -34.82,38.97 -35.76,38.37 -36.71,37.77 -38.02,36.95 -39.33,36.14 -41.22,34.62 -43.11,33.10 -45.43,31.11 -47.75,29.13 -50.40,26.17 -53.06,23.21 -55.49,20.06 -57.92,16.91 -60.39,13.28 -62.86,9.65 -64.87,6.00 -66.88,2.35 -68.33,-1.33 -69.78,-5.02 -70.42,-8.23 -71.07,-11.45 -70.93,-14.93 -70.79,-18.41 -70.44,-21.16 -70.09,-23.92 -69.25,-27.09 -68.40,-30.26 -67.01,-33.16 -65.63,-36.05 -63.96,-39.05 -62.30,-42.04 -60.50,-44.70 -58.71,-47.36 -56.70,-49.68 -54.68,-51.99 -52.62,-54.07 -50.56,-56.15 -49.00,-57.61 -47.43,-59.07 -45.67,-60.34 -43.90,-61.61 -41.17,-61.72 -38.43,-61.83 -36.08,-61.05 -33.73,-60.27 -32.39,-59.70 -31.04,-59.13 -29.35,-58.25 -27.67,-57.38 -26.55,-56.33 -25.44,-55.29 -24.27,-54.17 -23.09,-53.06 -22.38,-52.02 -21.66,-50.98 -20.88,-49.91 -20.09,-48.83 -19.05,-46.65 -18.02,-44.46 -17.66,-43.42 -17.30,-42.39 -16.81,-41.37 -16.32,-40.36 -15.43,-38.80 -14.53,-37.25 -14.29,-35.92 -14.04,-34.59 -13.16,-32.82 -12.27,-31.06 -11.17,-29.02 -10.07,-26.98 -9.17,-25.00 -8.27,-23.02 -7.18,-20.88 -6.10,-18.75 -5.27,-16.61 -4.45,-14.47 -3.63,-12.59 -2.81,-10.70 -2.02,-8.92 -1.23,-7.14 -0.49,-5.51 0.24,-3.88 0.89,-2.27 1.54,-0.66 1.60,-0.46 1.66,-0.27 1.67,-0.07 1.67,0.13 1.63,0.33 1.59,0.53 1.51,0.71 1.42,0.89 1.29,1.05 1.16,1.21 1.00,1.33 0.84,1.45 0.65,1.53 0.47,1.61 0.27,1.65 0.07,1.68 -0.13,1.66 -0.33,1.65 -0.52,1.58 -0.71,1.52 -0.89,1.41 -1.06,1.30 -1.20,1.16 -1.34,1.01 -1.44,0.83 -1.54,0.66 -1.54,0.66 L -1.54,0.66 Z"></path></g><g transform="translate(268.1718848831424 118.8293700752239) rotate(0 -11.518444001540672 0.3971966061056236)" stroke="none"><path fill="#ffffff" d="M -2.66,0 Q -2.66,0 -2.68,-1.14 -2.69,-2.28 -2.90,-3.37 -3.11,-4.47 -3.47,-5.56 -3.83,-6.65 -4.10,-7.73 -4.37,-8.81 -4.80,-10.35 -5.24,-11.89 -5.78,-13.47 -6.32,-15.04 -6.70,-16.15 -7.08,-17.27 -7.46,-18.42 -7.84,-19.58 -8.20,-21.07 -8.57,-22.55 -9.07,-23.61 -9.57,-24.67 -10.08,-26.30 -10.60,-27.94 -11.16,-29.08 -11.73,-30.21 -12.27,-31.86 -12.82,-33.51 -13.41,-34.97 -13.99,-36.44 -14.67,-38.00 -15.35,-39.55 -16.07,-41.14 -16.80,-42.73 -17.69,-44.24 -18.59,-45.75 -19.30,-47.79 -20.00,-49.84 -20.70,-51.18 -21.40,-52.52 -22.17,-54.05 -22.93,-55.59 -23.85,-56.76 -24.77,-57.94 -25.69,-59.21 -26.62,-60.47 -27.44,-61.36 -28.26,-62.25 -29.45,-63.56 -30.64,-64.88 -31.78,-65.81 -32.92,-66.75 -34.09,-67.58 -35.26,-68.41 -36.31,-69.26 -37.35,-70.10 -39.29,-71.20 -41.23,-72.30 -42.77,-72.81 -44.30,-73.31 -45.65,-73.35 -47.00,-73.38 -47.90,-72.81 -48.80,-72.25 -50.28,-71.27 -51.76,-70.30 -52.69,-69.18 -53.61,-68.06 -54.82,-66.48 -56.03,-64.89 -57.26,-62.92 -58.50,-60.94 -59.21,-59.26 -59.93,-57.57 -60.44,-55.95 -60.94,-54.33 -61.71,-52.27 -62.47,-50.20 -62.78,-48.11 -63.09,-46.02 -63.49,-43.89 -63.89,-41.77 -64.24,-39.93 -64.59,-38.09 -64.73,-36.27 -64.87,-34.46 -65.11,-32.86 -65.34,-31.26 -65.44,-29.59 -65.53,-27.92 -65.55,-26.28 -65.57,-24.65 -65.60,-22.81 -65.64,-20.98 -65.62,-19.29 -65.61,-17.59 -65.59,-15.97 -65.57,-14.34 -65.13,-13.00 -64.70,-11.65 -64.09,-10.17 -63.48,-8.70 -62.46,-7.59 -61.45,-6.48 -60.10,-4.97 -58.76,-3.46 -57.47,-1.84 -56.18,-0.23 -54.85,0.74 -53.52,1.72 -51.74,3.42 -49.96,5.13 -48.22,6.22 -46.47,7.31 -44.55,8.50 -42.62,9.70 -40.72,10.64 -38.82,11.59 -36.94,12.19 -35.05,12.79 -33.05,13.54 -31.05,14.28 -29.19,14.54 -27.33,14.81 -25.44,15.38 -23.56,15.95 -21.72,16.40 -19.88,16.85 -17.96,17.28 -16.04,17.71 -13.87,18.14 -11.70,18.58 -9.49,19.51 -7.28,20.43 -5.06,21.26 -2.84,22.09 -0.22,23.39 2.39,24.70 5.05,25.92 7.71,27.14 10.07,28.62 12.43,30.10 14.74,31.38 17.05,32.66 19.07,34.44 21.10,36.22 22.89,38.38 24.68,40.55 26.11,42.36 27.54,44.18 29.07,46.34 30.61,48.50 31.95,50.58 33.29,52.65 34.35,54.46 35.40,56.26 36.34,57.93 37.29,59.60 38.15,61.49 39.01,63.39 39.84,65.06 40.68,66.73 41.52,68.05 42.36,69.38 43.17,70.29 43.98,71.20 44.66,72.13 45.35,73.06 45.51,75.39 45.66,77.72 42.93,78.27 40.19,78.82 37.81,78.14 35.43,77.47 32.87,76.68 30.30,75.90 27.15,74.84 23.99,73.79 20.81,72.62 17.64,71.46 14.14,69.54 10.65,67.61 6.94,65.67 3.24,63.73 -0.14,61.98 -3.54,60.23 -6.60,58.56 -9.66,56.89 -12.76,55.27 -15.87,53.65 -19.05,51.80 -22.23,49.95 -25.16,48.25 -28.10,46.56 -30.73,44.91 -33.37,43.26 -35.57,42.14 -37.78,41.01 -39.70,39.81 -41.62,38.60 -43.15,37.70 -44.68,36.80 -45.79,36.28 -46.89,35.76 -48.45,35.18 -50.01,34.60 -51.18,33.56 -52.34,32.51 -52.54,32.23 -52.75,31.95 -52.86,31.62 -52.96,31.29 -52.96,30.94 -52.95,30.59 -52.83,30.27 -52.72,29.94 -52.50,29.66 -52.29,29.39 -52.00,29.20 -51.71,29.01 -51.37,28.92 -51.03,28.84 -50.69,28.86 -50.34,28.88 -50.02,29.02 -49.70,29.15 -49.44,29.38 -49.17,29.61 -49.00,29.91 -48.83,30.21 -48.76,30.55 -48.69,30.89 -48.73,31.24 -48.77,31.58 -48.92,31.90 -49.08,32.21 -49.32,32.46 -49.56,32.71 -49.87,32.87 -50.18,33.02 -50.53,33.07 -50.87,33.12 -51.21,33.06 -51.55,33.00 -51.86,32.83 -52.16,32.67 -52.40,32.41 -52.63,32.15 -52.77,31.83 -52.92,31.52 -52.95,31.17 -52.98,30.82 -52.90,30.49 -52.82,30.15 -52.63,29.85 -52.45,29.56 -52.18,29.34 -51.91,29.12 -51.59,28.99 -51.26,28.87 -50.92,28.86 -50.57,28.84 -50.23,28.94 -49.90,29.04 -49.62,29.24 -49.33,29.44 -49.33,29.44 -49.33,29.44 -48.31,30.71 -47.29,31.98 -46.25,32.40 -45.21,32.83 -44.15,33.58 -43.08,34.33 -41.65,35.34 -40.21,36.35 -38.39,37.50 -36.57,38.64 -34.26,39.82 -31.96,40.99 -29.36,42.61 -26.75,44.22 -23.81,45.91 -20.87,47.60 -17.74,49.40 -14.61,51.21 -11.47,52.82 -8.33,54.43 -5.29,56.05 -2.25,57.68 1.17,59.39 4.59,61.11 8.35,63.01 12.11,64.91 15.41,66.66 18.71,68.41 21.86,69.44 25.01,70.48 28.14,71.37 31.27,72.26 33.82,72.82 36.37,73.39 38.50,73.75 40.63,74.11 41.37,75.12 42.11,76.14 41.57,74.78 41.04,73.42 40.25,72.22 39.47,71.03 38.70,69.53 37.94,68.04 37.15,66.31 36.36,64.58 35.55,62.77 34.74,60.96 33.90,59.28 33.06,57.61 32.07,55.84 31.08,54.08 29.77,52.06 28.45,50.03 26.95,47.92 25.46,45.81 24.05,44.02 22.64,42.24 20.98,40.22 19.33,38.21 17.53,36.60 15.74,35.00 13.37,33.69 11.00,32.38 8.79,31.00 6.58,29.61 3.87,28.39 1.17,27.17 -1.32,25.94 -3.81,24.72 -6.09,23.91 -8.38,23.09 -10.32,22.29 -12.26,21.50 -14.48,21.11 -16.71,20.73 -18.68,20.29 -20.64,19.85 -22.58,19.35 -24.52,18.84 -26.15,18.24 -27.78,17.64 -29.89,17.28 -32.00,16.92 -33.96,16.22 -35.92,15.51 -38.00,14.84 -40.07,14.18 -42.11,13.21 -44.15,12.25 -46.11,11.10 -48.08,9.96 -50.12,8.76 -52.16,7.56 -53.91,6.03 -55.65,4.51 -57.24,3.26 -58.84,2.00 -60.12,0.52 -61.40,-0.95 -62.90,-2.43 -64.40,-3.90 -65.76,-5.52 -67.12,-7.14 -67.81,-8.85 -68.51,-10.57 -68.98,-12.44 -69.46,-14.31 -69.43,-15.96 -69.39,-17.61 -69.36,-19.32 -69.33,-21.03 -69.32,-22.89 -69.30,-24.76 -69.21,-26.47 -69.13,-28.17 -68.97,-30.06 -68.81,-31.94 -68.46,-33.34 -68.10,-34.73 -67.92,-36.73 -67.73,-38.74 -67.33,-40.51 -66.93,-42.28 -66.62,-44.36 -66.31,-46.44 -66.04,-48.86 -65.78,-51.28 -65.17,-53.38 -64.56,-55.49 -63.99,-57.23 -63.42,-58.98 -62.68,-60.92 -61.94,-62.85 -60.83,-65.09 -59.71,-67.33 -58.62,-69.22 -57.53,-71.12 -56.27,-72.80 -55.01,-74.48 -53.49,-75.80 -51.97,-77.12 -50.69,-77.84 -49.41,-78.56 -48.08,-78.80 -46.75,-79.04 -45.23,-78.83 -43.70,-78.62 -42.17,-77.95 -40.63,-77.29 -38.67,-76.02 -36.71,-74.75 -35.58,-74.17 -34.45,-73.58 -33.55,-72.76 -32.66,-71.93 -31.42,-70.98 -30.18,-70.03 -28.87,-68.91 -27.57,-67.80 -26.22,-66.45 -24.87,-65.10 -24.02,-64.00 -23.17,-62.91 -22.33,-61.67 -21.48,-60.43 -20.37,-58.94 -19.27,-57.44 -18.49,-55.91 -17.72,-54.38 -16.94,-52.81 -16.17,-51.23 -15.56,-49.64 -14.94,-48.06 -13.81,-46.40 -12.68,-44.74 -11.86,-43.17 -11.04,-41.60 -10.23,-40.02 -9.42,-38.44 -8.66,-36.83 -7.90,-35.22 -7.42,-33.94 -6.95,-32.65 -6.18,-31.18 -5.41,-29.70 -4.94,-28.43 -4.46,-27.15 -3.71,-25.65 -2.97,-24.15 -2.55,-22.84 -2.13,-21.53 -1.73,-20.42 -1.33,-19.30 -0.96,-18.29 -0.59,-17.28 -0.20,-16.24 0.18,-15.20 0.53,-13.52 0.87,-11.85 1.16,-10.54 1.45,-9.23 1.83,-7.80 2.20,-6.37 2.45,-4.33 2.69,-2.28 2.68,-1.14 2.66,0 2.62,0.31 2.58,0.63 2.47,0.93 2.35,1.23 2.17,1.50 1.99,1.76 1.75,1.97 1.51,2.19 1.22,2.34 0.94,2.48 0.63,2.56 0.32,2.64 -0.00,2.64 -0.32,2.64 -0.63,2.56 -0.94,2.48 -1.22,2.34 -1.51,2.19 -1.75,1.97 -1.99,1.76 -2.17,1.50 -2.35,1.23 -2.47,0.93 -2.58,0.63 -2.62,0.31 -2.66,-0.00 -2.66,-0.00 L -2.66,0 Z"></path></g><g transform="translate(369.85191301798216 170.4637470518524) rotate(0 28.200307518942736 -6.3549941826768475)" stroke="none"><path fill="#ffffff" d="M -1.21,-1.82 Q -1.21,-1.82 0.15,-2.73 1.52,-3.64 3.10,-4.51 4.67,-5.38 6.76,-6.35 8.85,-7.31 10.64,-8.17 12.43,-9.03 13.42,-10.00 14.42,-10.97 15.65,-11.96 16.87,-12.95 17.99,-13.99 19.11,-15.02 20.00,-15.94 20.89,-16.85 21.74,-18.48 22.58,-20.10 23.59,-22.29 24.61,-24.48 24.80,-25.67 25.00,-26.86 25.65,-28.42 26.30,-29.99 26.46,-31.18 26.63,-32.37 26.70,-33.58 26.78,-34.79 26.79,-35.98 26.81,-37.17 26.83,-38.58 26.86,-40.00 26.71,-41.57 26.57,-43.14 25.95,-44.49 25.32,-45.84 24.58,-47.15 23.83,-48.47 22.90,-50.23 21.97,-51.99 21.12,-53.07 20.26,-54.15 19.25,-55.27 18.24,-56.38 16.99,-57.51 15.74,-58.63 14.53,-59.53 13.32,-60.43 11.90,-60.95 10.49,-61.47 8.92,-61.95 7.36,-62.43 5.78,-62.86 4.21,-63.28 2.77,-63.43 1.32,-63.57 -0.28,-63.45 -1.90,-63.33 -3.65,-62.90 -5.40,-62.47 -7.24,-61.69 -9.08,-60.91 -11.03,-59.92 -12.98,-58.92 -14.69,-57.85 -16.41,-56.77 -18.01,-55.46 -19.62,-54.14 -21.49,-52.64 -23.36,-51.15 -25.26,-49.41 -27.17,-47.67 -28.90,-46.02 -30.63,-44.37 -31.97,-42.40 -33.31,-40.43 -34.81,-37.98 -36.32,-35.53 -37.38,-32.97 -38.44,-30.41 -39.35,-27.73 -40.26,-25.05 -40.63,-22.41 -41.00,-19.77 -41.16,-17.28 -41.32,-14.79 -41.39,-11.91 -41.47,-9.03 -41.27,-6.26 -41.07,-3.48 -40.54,-0.76 -40.01,1.96 -39.12,4.67 -38.23,7.38 -37.38,9.93 -36.54,12.48 -35.51,14.89 -34.49,17.30 -33.38,19.44 -32.27,21.58 -30.92,23.59 -29.56,25.59 -28.08,27.59 -26.59,29.58 -24.87,31.28 -23.15,32.98 -20.64,34.81 -18.13,36.65 -15.85,38.63 -13.57,40.60 -11.16,41.80 -8.74,43.00 -6.07,44.22 -3.41,45.44 -0.68,46.64 2.04,47.85 4.79,49.04 7.55,50.24 10.40,50.70 13.25,51.17 16.74,51.38 20.23,51.59 24.00,51.68 27.77,51.77 32.22,50.91 36.66,50.04 42.19,48.32 47.72,46.60 54.17,44.04 60.61,41.49 66.52,38.60 72.43,35.70 77.46,33.09 82.49,30.49 86.20,28.26 89.90,26.03 92.10,24.21 94.30,22.40 96.29,20.53 98.27,18.66 98.49,18.53 98.71,18.40 98.95,18.34 99.20,18.29 99.45,18.31 99.71,18.34 99.94,18.45 100.17,18.55 100.35,18.73 100.54,18.90 100.66,19.12 100.78,19.35 100.82,19.60 100.86,19.85 100.82,20.10 100.78,20.35 100.66,20.58 100.55,20.80 100.36,20.98 100.18,21.15 99.95,21.26 99.72,21.37 99.47,21.39 99.21,21.42 98.96,21.37 98.72,21.31 98.50,21.18 98.28,21.05 98.11,20.86 97.95,20.67 97.85,20.43 97.76,20.20 97.75,19.94 97.73,19.69 97.80,19.45 97.86,19.20 98.01,18.99 98.15,18.78 98.35,18.62 98.55,18.47 98.79,18.39 99.03,18.31 99.29,18.31 99.54,18.30 99.78,18.38 100.02,18.46 100.23,18.62 100.43,18.77 100.57,18.98 100.71,19.19 100.78,19.43 100.85,19.68 100.84,19.93 100.83,20.19 100.73,20.42 100.64,20.66 100.48,20.85 100.31,21.05 100.31,21.05 100.31,21.05 98.14,22.74 95.97,24.43 93.61,26.35 91.26,28.28 87.48,30.55 83.70,32.82 78.65,35.44 73.59,38.06 67.58,41.00 61.58,43.94 55.04,46.52 48.51,49.10 42.83,50.86 37.16,52.62 32.44,53.51 27.72,54.39 23.90,54.30 20.07,54.21 16.44,53.98 12.82,53.76 9.67,53.21 6.52,52.65 3.75,51.45 0.98,50.25 -1.76,49.04 -4.51,47.83 -7.21,46.58 -9.92,45.34 -12.60,43.97 -15.28,42.60 -17.48,40.68 -19.69,38.77 -22.34,36.81 -25.00,34.85 -26.85,33.00 -28.69,31.16 -30.22,29.11 -31.74,27.06 -33.17,24.92 -34.61,22.79 -35.76,20.56 -36.91,18.33 -37.97,15.82 -39.04,13.31 -39.88,10.75 -40.73,8.20 -41.66,5.33 -42.60,2.46 -43.15,-0.42 -43.71,-3.30 -43.91,-6.19 -44.11,-9.09 -44.04,-12.03 -43.96,-14.96 -43.79,-17.55 -43.62,-20.15 -43.21,-23.02 -42.79,-25.90 -41.85,-28.67 -40.91,-31.44 -39.77,-34.19 -38.62,-36.94 -37.09,-39.45 -35.56,-41.97 -34.06,-44.16 -32.56,-46.35 -30.82,-48.05 -29.08,-49.74 -27.14,-51.56 -25.19,-53.39 -23.37,-54.91 -21.55,-56.43 -19.83,-57.91 -18.12,-59.39 -16.33,-60.59 -14.54,-61.80 -12.55,-62.94 -10.55,-64.09 -8.48,-65.13 -6.41,-66.16 -4.33,-66.77 -2.24,-67.38 -0.22,-67.56 1.80,-67.73 3.54,-67.50 5.29,-67.27 6.93,-66.81 8.56,-66.36 10.26,-65.84 11.95,-65.32 13.89,-64.57 15.83,-63.81 17.15,-62.79 18.47,-61.76 19.95,-60.50 21.44,-59.24 22.55,-57.97 23.67,-56.70 24.59,-55.39 25.52,-54.09 26.63,-52.38 27.74,-50.68 28.57,-49.22 29.40,-47.75 30.33,-45.78 31.27,-43.81 31.56,-41.87 31.86,-39.94 31.85,-38.46 31.83,-36.99 31.76,-35.70 31.69,-34.40 31.55,-32.99 31.42,-31.58 31.09,-29.82 30.77,-28.07 30.27,-27.00 29.76,-25.92 29.39,-24.14 29.02,-22.35 28.36,-21.00 27.70,-19.64 26.49,-17.83 25.27,-16.01 24.59,-14.91 23.91,-13.81 22.87,-12.89 21.84,-11.98 20.57,-10.87 19.29,-9.77 18.12,-8.94 16.95,-8.11 15.54,-6.94 14.12,-5.77 12.37,-4.83 10.63,-3.89 8.71,-2.77 6.78,-1.64 5.37,-0.82 3.95,-0.00 2.58,0.91 1.21,1.82 0.98,1.94 0.74,2.06 0.48,2.12 0.22,2.18 -0.03,2.18 -0.30,2.17 -0.55,2.11 -0.81,2.04 -1.04,1.91 -1.27,1.78 -1.47,1.60 -1.66,1.43 -1.81,1.21 -1.96,0.98 -2.05,0.74 -2.14,0.49 -2.17,0.22 -2.19,-0.03 -2.16,-0.29 -2.12,-0.56 -2.02,-0.80 -1.92,-1.05 -1.77,-1.26 -1.62,-1.48 -1.42,-1.65 -1.21,-1.82 -1.21,-1.82 L -1.21,-1.82 Z"></path></g><g transform="translate(548.5863554661629 43.363817943811725) rotate(0 -12.312837213752005 86.98405673895803)" stroke="none"><path fill="#ffffff" d="M -2.36,0.47 Q -2.36,0.47 -2.62,-0.66 -2.89,-1.79 -3.03,-3.08 -3.17,-4.37 -4.05,-6.70 -4.93,-9.04 -5.63,-10.02 -6.32,-11.00 -7.17,-12.56 -8.01,-14.13 -8.78,-15.39 -9.55,-16.66 -11.04,-17.96 -12.52,-19.27 -13.62,-20.24 -14.72,-21.21 -16.23,-21.42 -17.74,-21.63 -20.52,-20.40 -23.31,-19.18 -26.31,-17.53 -29.31,-15.89 -33.12,-13.41 -36.94,-10.94 -41.01,-7.25 -45.08,-3.56 -48.63,0.67 -52.18,4.92 -55.77,9.90 -59.35,14.88 -62.45,20.58 -65.55,26.29 -68.01,32.32 -70.46,38.36 -72.42,45.00 -74.38,51.64 -75.67,58.75 -76.95,65.87 -77.50,72.74 -78.05,79.61 -78.29,86.64 -78.53,93.67 -78.41,100.06 -78.28,106.45 -77.10,113.65 -75.91,120.86 -74.28,127.33 -72.64,133.80 -70.37,139.22 -68.11,144.65 -65.33,149.91 -62.55,155.17 -59.55,160.13 -56.55,165.10 -53.04,169.43 -49.52,173.77 -45.78,177.41 -42.03,181.05 -37.98,183.93 -33.93,186.81 -29.97,188.93 -26.00,191.05 -21.41,192.61 -16.82,194.18 -11.96,195.06 -7.10,195.95 -1.72,195.64 3.64,195.34 9.02,193.42 14.39,191.50 19.60,188.44 24.82,185.38 29.49,181.17 34.15,176.95 38.15,171.57 42.15,166.19 45.20,160.30 48.25,154.41 49.98,147.66 51.70,140.91 52.44,133.52 53.18,126.12 53.27,118.43 53.36,110.74 52.04,103.23 50.71,95.71 48.11,87.53 45.51,79.34 42.59,72.46 39.67,65.58 35.94,58.81 32.21,52.04 28.35,45.97 24.49,39.91 19.89,33.70 15.30,27.49 10.20,22.39 5.11,17.30 0.17,12.36 -4.75,7.43 -9.32,3.54 -13.89,-0.34 -16.29,-2.22 -18.68,-4.10 -20.47,-5.50 -22.25,-6.91 -22.40,-7.06 -22.54,-7.22 -22.63,-7.41 -22.71,-7.61 -22.73,-7.82 -22.75,-8.03 -22.70,-8.24 -22.66,-8.44 -22.54,-8.62 -22.43,-8.80 -22.27,-8.94 -22.10,-9.07 -21.90,-9.15 -21.71,-9.23 -21.49,-9.23 -21.28,-9.24 -21.08,-9.18 -20.87,-9.12 -20.70,-9.00 -20.53,-8.88 -20.40,-8.71 -20.27,-8.54 -20.21,-8.33 -20.14,-8.13 -20.15,-7.92 -20.15,-7.71 -20.22,-7.51 -20.29,-7.31 -20.42,-7.14 -20.56,-6.97 -20.73,-6.85 -20.91,-6.74 -21.12,-6.68 -21.32,-6.63 -21.53,-6.65 -21.75,-6.66 -21.94,-6.74 -22.14,-6.82 -22.30,-6.96 -22.46,-7.10 -22.56,-7.29 -22.67,-7.47 -22.71,-7.68 -22.76,-7.89 -22.73,-8.10 -22.70,-8.31 -22.61,-8.50 -22.52,-8.69 -22.37,-8.84 -22.22,-9.00 -22.03,-9.09 -21.84,-9.19 -21.63,-9.22 -21.42,-9.25 -21.21,-9.21 -21.00,-9.18 -20.82,-9.07 -20.63,-8.97 -20.63,-8.97 -20.63,-8.97 -18.85,-7.57 -17.06,-6.17 -14.63,-4.26 -12.19,-2.34 -7.54,1.61 -2.89,5.57 2.03,10.51 6.96,15.44 12.19,20.68 17.41,25.92 22.06,32.21 26.70,38.49 30.61,44.63 34.51,50.77 38.30,57.66 42.09,64.55 45.06,71.55 48.02,78.55 50.66,86.90 53.30,95.26 54.64,103.01 55.98,110.76 55.89,118.57 55.79,126.39 55.02,133.98 54.25,141.57 52.42,148.58 50.59,155.60 47.42,161.68 44.26,167.75 40.09,173.33 35.92,178.90 31.03,183.27 26.15,187.64 20.71,190.81 15.27,193.98 9.54,195.97 3.82,197.96 -1.87,198.25 -7.56,198.54 -12.61,197.60 -17.67,196.67 -22.45,195.02 -27.24,193.37 -31.35,191.16 -35.46,188.95 -39.66,185.95 -43.86,182.94 -47.72,179.18 -51.57,175.43 -55.19,170.94 -58.81,166.46 -61.85,161.43 -64.89,156.40 -67.72,151.03 -70.55,145.67 -72.88,140.06 -75.22,134.45 -76.88,127.87 -78.55,121.29 -79.76,113.90 -80.97,106.50 -81.10,100.04 -81.23,93.58 -81.01,86.49 -80.78,79.39 -80.23,72.39 -79.69,65.38 -78.39,58.11 -77.10,50.84 -75.13,44.06 -73.16,37.27 -70.69,31.07 -68.21,24.86 -65.07,18.96 -61.93,13.05 -58.36,7.92 -54.79,2.79 -51.18,-1.71 -47.57,-6.22 -43.39,-10.23 -39.21,-14.24 -35.43,-16.98 -31.65,-19.73 -28.61,-21.76 -25.56,-23.80 -23.32,-25.12 -21.07,-26.44 -18.46,-26.98 -15.84,-27.52 -14.59,-27.24 -13.34,-26.96 -12.12,-26.01 -10.89,-25.05 -9.92,-23.96 -8.95,-22.87 -8.18,-22.06 -7.41,-21.25 -6.47,-20.22 -5.52,-19.19 -4.68,-17.84 -3.83,-16.50 -3.02,-15.14 -2.21,-13.78 -1.16,-12.19 -0.12,-10.60 0.29,-9.29 0.71,-7.98 1.34,-5.37 1.97,-2.76 2.16,-1.62 2.36,-0.47 2.38,-0.18 2.40,0.10 2.35,0.39 2.31,0.67 2.19,0.94 2.08,1.21 1.90,1.44 1.73,1.67 1.50,1.85 1.27,2.04 1.01,2.16 0.75,2.28 0.46,2.34 0.18,2.40 -0.10,2.38 -0.39,2.37 -0.67,2.29 -0.95,2.21 -1.20,2.06 -1.45,1.92 -1.66,1.71 -1.87,1.51 -2.02,1.27 -2.18,1.02 -2.27,0.74 -2.36,0.47 -2.36,0.47 L -2.36,0.47 Z"></path></g><g stroke-opacity="0.4" fill-opacity="0.4" transform="translate(501.7181559447862 46.54131503515016) rotate(0 32.96663648920742 100.09124928616795)" stroke="none"><path fill="#ffffff" d="M 0,-2.55 Q 0,-2.55 1.36,-2.55 2.73,-2.55 3.77,-2.77 4.81,-2.99 5.91,-3.14 7.00,-3.28 8.19,-3.35 9.37,-3.42 11.63,-3.79 13.90,-4.15 16.26,-4.55 18.62,-4.95 20.52,-5.07 22.42,-5.19 24.12,-5.56 25.82,-5.92 27.97,-6.01 30.11,-6.09 31.87,-5.33 33.64,-4.58 33.76,-3.02 33.88,-1.45 33.22,-0.51 32.56,0.43 31.40,0.83 30.24,1.23 28.94,1.88 27.65,2.53 25.74,3.40 23.84,4.28 22.05,4.91 20.26,5.54 18.21,6.00 16.15,6.46 14.14,6.81 12.12,7.16 10.22,7.67 8.32,8.18 6.26,8.63 4.19,9.08 2.70,9.54 1.22,10.00 -0.24,10.27 -1.70,10.55 -3.27,10.66 -4.83,10.78 -6.75,11.26 -8.67,11.75 -9.81,12.20 -10.94,12.66 -11.25,12.72 -11.56,12.79 -11.87,12.78 -12.19,12.77 -12.50,12.69 -12.80,12.60 -13.08,12.45 -13.36,12.29 -13.59,12.07 -13.82,11.85 -13.99,11.59 -14.17,11.32 -14.27,11.02 -14.37,10.72 -14.40,10.40 -14.43,10.09 -14.38,9.77 -14.34,9.46 -14.21,9.16 -14.09,8.87 -13.90,8.61 -13.72,8.36 -13.47,8.16 -13.23,7.95 -12.94,7.81 -12.66,7.67 -11.28,7.62 -9.90,7.58 -8.24,7.87 -6.58,8.17 -4.38,8.67 -2.18,9.16 -0.08,9.66 2.02,10.16 4.39,10.40 6.76,10.64 9.83,10.78 12.91,10.91 16.27,10.99 19.64,11.07 23.35,11.12 27.07,11.17 30.20,10.98 33.32,10.78 36.25,10.48 39.17,10.18 41.30,9.84 43.43,9.49 44.97,9.04 46.51,8.58 47.60,8.20 48.69,7.82 48.91,7.81 49.13,7.79 49.35,7.84 49.57,7.88 49.77,7.97 49.97,8.06 50.14,8.20 50.32,8.33 50.45,8.51 50.59,8.69 50.68,8.89 50.77,9.09 50.81,9.31 50.85,9.53 50.83,9.75 50.82,9.97 50.75,10.18 50.69,10.39 50.57,10.58 50.45,10.77 50.30,10.93 50.14,11.08 49.95,11.20 49.76,11.31 49.55,11.38 49.34,11.44 48.19,11.73 47.04,12.01 44.40,12.76 41.76,13.51 39.84,14.19 37.92,14.87 34.93,15.85 31.93,16.82 28.84,17.89 25.76,18.95 22.61,20.07 19.47,21.19 16.30,22.34 13.13,23.49 9.86,24.22 6.59,24.95 3.18,25.70 -0.22,26.45 -3.72,27.22 -7.23,27.99 -10.54,28.77 -13.84,29.55 -17.12,30.11 -20.40,30.68 -23.39,31.14 -26.37,31.61 -28.76,32.03 -31.16,32.45 -33.06,32.89 -34.97,33.32 -36.29,34.29 -37.61,35.26 -37.82,35.31 -38.03,35.37 -38.25,35.37 -38.47,35.37 -38.69,35.32 -38.90,35.26 -39.09,35.16 -39.29,35.06 -39.45,34.92 -39.62,34.77 -39.74,34.59 -39.87,34.41 -39.94,34.21 -40.02,34.00 -40.05,33.79 -40.08,33.57 -40.05,33.35 -40.03,33.13 -39.95,32.93 -39.87,32.72 -39.75,32.54 -39.62,32.36 -39.46,32.22 -39.30,32.07 -39.10,31.97 -38.91,31.86 -37.81,32.03 -36.70,32.19 -35.58,32.15 -34.46,32.10 -32.44,32.41 -30.43,32.72 -27.57,33.13 -24.71,33.54 -20.59,33.73 -16.47,33.92 -11.50,34.02 -6.54,34.13 -0.78,34.18 4.98,34.24 10.57,33.81 16.16,33.39 21.96,32.76 27.77,32.13 33.46,31.64 39.15,31.15 44.04,30.49 48.93,29.83 53.09,29.32 57.25,28.81 60.56,28.15 63.87,27.49 66.20,26.98 68.54,26.47 70.01,26.13 71.49,25.80 72.71,25.25 73.93,24.71 74.16,24.71 74.39,24.72 74.61,24.77 74.83,24.83 75.03,24.94 75.24,25.05 75.41,25.20 75.58,25.36 75.70,25.55 75.83,25.74 75.91,25.95 75.99,26.17 76.02,26.40 76.04,26.63 76.01,26.85 75.98,27.08 75.90,27.30 75.81,27.51 75.68,27.70 75.55,27.89 75.37,28.04 75.20,28.19 75.00,28.29 74.79,28.40 74.57,28.45 74.34,28.50 72.95,28.64 71.56,28.79 70.50,29.32 69.44,29.85 67.45,30.48 65.46,31.11 62.86,32.20 60.27,33.28 57.01,34.43 53.75,35.58 50.75,36.51 47.75,37.43 45.17,38.47 42.59,39.51 39.62,40.64 36.65,41.77 33.76,42.70 30.87,43.64 28.04,44.49 25.21,45.34 22.84,45.93 20.47,46.52 18.38,47.21 16.28,47.90 14.12,48.23 11.96,48.57 10.04,49.13 8.12,49.70 6.89,50.26 5.66,50.83 4.51,51.79 3.37,52.76 3.15,52.85 2.92,52.94 2.69,52.97 2.45,53.00 2.21,52.98 1.98,52.95 1.75,52.87 1.53,52.79 1.33,52.66 1.13,52.53 0.97,52.35 0.81,52.18 0.69,51.97 0.58,51.76 0.51,51.53 0.45,51.30 0.45,51.06 0.44,50.82 0.50,50.59 0.55,50.35 0.66,50.14 0.76,49.93 0.92,49.74 1.07,49.56 1.27,49.42 1.46,49.28 2.67,49.55 3.88,49.82 5.61,49.86 7.35,49.90 8.96,50.51 10.57,51.12 12.49,51.41 14.42,51.70 16.96,52.12 19.51,52.54 22.57,52.74 25.62,52.94 29.21,53.04 32.81,53.15 37.07,53.21 41.34,53.27 45.90,53.31 50.45,53.34 54.90,53.37 59.35,53.39 63.07,53.40 66.79,53.42 69.92,53.20 73.05,52.99 75.08,52.88 77.11,52.77 77.99,53.46 78.87,54.14 77.77,54.33 76.67,54.52 74.74,54.83 72.81,55.14 70.32,55.13 67.84,55.11 64.25,55.73 60.66,56.34 56.50,56.81 52.34,57.29 47.40,57.92 42.47,58.55 36.90,59.04 31.34,59.52 26.08,60.39 20.81,61.26 15.37,62.31 9.92,63.36 5.05,64.03 0.18,64.71 -4.09,65.66 -8.38,66.62 -11.84,67.26 -15.31,67.90 -17.86,68.61 -20.41,69.32 -21.99,69.73 -23.58,70.14 -24.03,70.70 -24.47,71.26 -24.68,71.34 -24.88,71.42 -25.10,71.45 -25.31,71.48 -25.53,71.46 -25.74,71.43 -25.95,71.36 -26.15,71.28 -26.33,71.16 -26.51,71.04 -26.66,70.88 -26.81,70.72 -26.91,70.53 -27.01,70.34 -27.07,70.13 -27.12,69.92 -27.13,69.70 -27.13,69.48 -27.08,69.27 -27.03,69.06 -26.93,68.86 -26.83,68.67 -26.69,68.50 -26.55,68.34 -26.37,68.21 -26.20,68.09 -25.01,67.99 -23.82,67.89 -22.61,67.78 -21.40,67.67 -19.82,67.67 -18.24,67.68 -16.08,68.02 -13.92,68.36 -11.30,68.54 -8.68,68.73 -5.10,68.61 -1.52,68.49 3.41,68.01 8.35,67.53 14.09,66.66 19.82,65.79 25.87,64.29 31.92,62.80 38.69,61.70 45.46,60.61 51.93,59.24 58.41,57.88 64.63,56.84 70.85,55.80 75.76,54.90 80.66,54.01 84.08,53.19 87.51,52.36 89.71,52.00 91.92,51.63 92.59,51.37 93.25,51.11 93.44,51.10 93.63,51.09 93.81,51.13 94.00,51.17 94.17,51.25 94.34,51.33 94.49,51.44 94.63,51.56 94.75,51.71 94.86,51.86 94.93,52.04 95.01,52.21 95.04,52.39 95.07,52.58 95.06,52.77 95.04,52.96 94.98,53.13 94.92,53.31 94.82,53.47 94.72,53.63 94.59,53.76 94.45,53.89 94.29,53.99 94.13,54.08 93.94,54.14 93.76,54.19 92.03,54.22 90.29,54.25 89.17,54.54 88.04,54.82 86.11,55.10 84.18,55.39 80.90,56.12 77.62,56.86 73.65,57.61 69.68,58.37 65.31,59.58 60.95,60.78 55.84,61.98 50.73,63.17 45.63,64.58 40.52,65.98 35.36,67.27 30.19,68.55 24.79,69.78 19.38,71.00 14.57,71.98 9.75,72.96 4.98,74.05 0.22,75.14 -3.87,76.06 -7.96,76.99 -11.32,77.61 -14.68,78.23 -17.23,78.72 -19.79,79.21 -21.40,80.01 -23.02,80.81 -22.92,79.70 -22.83,78.59 -20.68,78.48 -18.53,78.37 -16.96,78.71 -15.39,79.06 -13.50,79.29 -11.62,79.52 -8.52,79.68 -5.42,79.84 -1.35,79.94 2.71,80.05 7.53,79.44 12.34,78.82 17.87,78.12 23.40,77.42 29.38,76.45 35.37,75.49 41.33,74.40 47.30,73.31 52.59,72.40 57.88,71.48 62.37,70.42 66.86,69.36 70.61,68.46 74.36,67.55 77.30,66.72 80.24,65.89 81.22,65.39 82.19,64.89 82.39,64.44 82.58,63.98 82.77,63.92 82.96,63.86 83.16,63.84 83.37,63.83 83.57,63.86 83.76,63.90 83.95,63.98 84.14,64.06 84.30,64.18 84.46,64.30 84.58,64.46 84.71,64.62 84.80,64.80 84.88,64.98 84.92,65.18 84.96,65.38 84.95,65.58 84.94,65.78 84.88,65.98 84.83,66.17 84.72,66.34 84.62,66.52 84.48,66.66 84.34,66.81 84.17,66.91 84.00,67.02 81.61,67.76 79.23,68.51 76.72,69.33 74.20,70.16 70.85,71.40 67.49,72.64 63.77,74.07 60.05,75.50 55.67,76.80 51.29,78.10 46.71,79.55 42.14,80.99 37.67,82.29 33.19,83.60 28.09,85.06 22.99,86.52 18.28,87.60 13.57,88.68 9.11,90.04 4.66,91.40 0.66,92.44 -3.32,93.48 -6.17,94.16 -9.01,94.83 -10.60,95.40 -12.20,95.97 -13.13,96.72 -14.06,97.46 -14.27,97.53 -14.47,97.60 -14.69,97.62 -14.91,97.64 -15.12,97.60 -15.34,97.57 -15.54,97.49 -15.74,97.40 -15.91,97.27 -16.09,97.14 -16.22,96.97 -16.36,96.80 -16.46,96.61 -16.55,96.41 -16.59,96.20 -16.64,95.98 -16.63,95.77 -16.62,95.55 -16.56,95.34 -16.50,95.13 -16.39,94.94 -16.29,94.75 -16.14,94.60 -15.99,94.44 -15.80,94.32 -15.62,94.20 -14.00,94.43 -12.39,94.66 -9.78,94.70 -7.16,94.74 -4.88,94.86 -2.59,94.99 1.11,95.07 4.82,95.16 8.97,94.32 13.13,93.49 17.70,92.46 22.27,91.44 26.72,90.33 31.17,89.22 35.54,87.86 39.92,86.49 43.64,85.45 47.37,84.41 50.98,83.29 54.59,82.18 58.23,81.24 61.86,80.30 65.46,79.45 69.06,78.59 72.16,77.78 75.27,76.97 77.76,76.39 80.25,75.81 81.77,75.46 83.29,75.11 83.69,74.59 84.10,74.07 84.30,74.00 84.50,73.92 84.72,73.89 84.94,73.87 85.15,73.90 85.37,73.92 85.57,74.00 85.77,74.08 85.95,74.20 86.13,74.33 86.27,74.49 86.42,74.65 86.52,74.85 86.62,75.04 86.67,75.25 86.72,75.46 86.72,75.68 86.72,75.89 86.66,76.10 86.61,76.32 86.51,76.51 86.41,76.70 86.26,76.86 86.12,77.02 85.94,77.15 85.76,77.27 83.73,77.61 81.70,77.95 79.36,78.39 77.02,78.82 73.26,79.67 69.50,80.51 64.68,81.54 59.86,82.57 54.88,83.90 49.90,85.22 44.81,86.69 39.72,88.15 35.29,89.67 30.87,91.19 27.12,92.30 23.37,93.41 19.98,94.56 16.59,95.70 13.29,96.65 9.98,97.60 7.03,98.67 4.08,99.74 1.19,100.66 -1.70,101.59 -3.53,102.41 -5.37,103.24 -6.57,103.92 -7.77,104.61 -6.33,104.66 -4.89,104.72 -3.02,105.36 -1.16,106.01 0.96,106.31 3.08,106.61 5.84,106.78 8.60,106.95 11.60,107.05 14.61,107.15 19.20,106.53 23.80,105.91 28.57,105.43 33.34,104.94 38.48,103.84 43.62,102.75 48.57,101.60 53.52,100.45 57.68,99.51 61.85,98.57 64.97,97.72 68.08,96.87 70.08,96.29 72.09,95.70 71.74,96.93 71.38,98.17 69.51,98.81 67.64,99.45 64.40,100.76 61.15,102.06 56.27,103.76 51.38,105.46 45.85,107.08 40.32,108.70 34.36,110.72 28.40,112.75 22.41,114.75 16.43,116.75 10.21,118.51 3.98,120.28 -1.59,122.15 -7.16,124.02 -12.31,125.51 -17.46,127.00 -21.72,128.09 -25.97,129.18 -28.84,130.30 -31.70,131.41 -33.84,132.35 -35.98,133.28 -37.12,133.81 -38.26,134.34 -35.75,134.94 -33.24,135.54 -31.07,136.30 -28.89,137.07 -26.32,137.39 -23.75,137.71 -20.58,137.87 -17.41,138.04 -14.01,138.13 -10.61,138.22 -6.80,137.37 -3.00,136.52 1.68,135.70 6.37,134.88 11.27,133.63 16.17,132.39 21.05,131.40 25.92,130.40 30.94,129.31 35.96,128.21 40.83,127.06 45.70,125.91 50.04,124.74 54.37,123.57 58.30,122.62 62.22,121.66 64.98,120.81 67.75,119.96 69.81,119.15 71.87,118.34 73.16,117.67 74.44,117.00 75.94,117.50 77.44,118.01 76.35,118.43 75.26,118.85 72.02,120.90 68.78,122.95 65.43,124.58 62.08,126.21 57.63,128.04 53.18,129.87 48.32,131.76 43.46,133.66 38.37,135.15 33.27,136.64 28.61,137.95 23.94,139.25 19.69,140.48 15.43,141.70 11.81,142.90 8.20,144.09 5.28,145.06 2.36,146.02 0.24,146.87 -1.87,147.72 -3.45,148.39 -5.04,149.07 -6.08,148.77 -7.11,148.46 -5.83,148.14 -4.56,147.82 -3.47,147.78 -2.39,147.74 -0.79,147.77 0.80,147.79 2.48,147.63 4.17,147.48 6.87,147.49 9.58,147.51 12.64,147.11 15.70,146.71 19.31,146.11 22.93,145.51 27.19,144.59 31.45,143.68 36.68,142.39 41.92,141.10 47.63,140.10 53.34,139.09 59.37,137.77 65.41,136.45 70.98,135.42 76.55,134.40 81.15,133.30 85.76,132.19 89.36,131.49 92.96,130.78 95.85,130.26 98.75,129.74 100.55,129.06 102.36,128.39 103.26,127.81 104.15,127.22 104.36,126.94 104.56,126.66 104.75,126.59 104.95,126.52 105.16,126.50 105.37,126.48 105.58,126.51 105.78,126.54 105.98,126.62 106.17,126.69 106.34,126.82 106.51,126.94 106.65,127.10 106.78,127.26 106.87,127.45 106.97,127.63 107.01,127.84 107.06,128.04 107.05,128.25 107.05,128.46 106.99,128.66 106.94,128.87 106.84,129.05 106.74,129.23 106.60,129.39 106.45,129.54 106.28,129.65 106.10,129.77 105.00,129.79 103.89,129.81 101.52,130.59 99.15,131.36 96.56,131.98 93.96,132.59 91.09,133.49 88.22,134.39 84.68,135.44 81.13,136.50 77.53,137.40 73.94,138.30 70.35,139.13 66.77,139.96 63.71,140.97 60.65,141.98 57.03,143.10 53.40,144.22 49.82,145.38 46.23,146.53 42.86,147.48 39.48,148.44 36.70,149.29 33.91,150.14 31.61,150.95 29.30,151.76 27.44,152.56 25.59,153.36 24.46,154.75 23.34,156.15 23.15,156.25 22.95,156.35 22.74,156.41 22.53,156.46 22.31,156.47 22.09,156.47 21.88,156.42 21.66,156.37 21.47,156.27 21.27,156.17 21.11,156.02 20.94,155.88 20.81,155.70 20.69,155.52 20.61,155.32 20.53,155.11 20.50,154.90 20.47,154.68 20.49,154.46 20.52,154.24 20.59,154.04 20.67,153.83 20.79,153.65 20.91,153.47 21.08,153.32 21.24,153.17 22.79,153.38 24.34,153.59 26.64,153.57 28.95,153.54 30.45,153.54 31.94,153.53 33.49,153.53 35.04,153.52 37.06,153.61 39.09,153.70 41.14,153.36 43.20,153.01 45.47,152.44 47.75,151.87 50.03,150.98 52.32,150.10 54.98,149.25 57.64,148.40 59.81,147.40 61.99,146.40 64.62,145.49 67.24,144.58 69.76,143.96 72.29,143.34 74.37,142.44 76.45,141.54 78.60,140.89 80.75,140.24 82.28,139.88 83.82,139.52 84.00,139.49 84.19,139.46 84.37,139.47 84.56,139.48 84.73,139.54 84.91,139.60 85.07,139.69 85.23,139.79 85.36,139.92 85.49,140.05 85.58,140.21 85.68,140.37 85.73,140.55 85.78,140.73 85.79,140.91 85.80,141.10 85.77,141.28 85.73,141.46 85.66,141.63 85.58,141.80 85.46,141.95 85.35,142.09 85.20,142.20 85.06,142.32 84.89,142.39 84.72,142.47 84.27,140.95 83.82,139.42 83.99,139.39 84.15,139.37 84.32,139.38 84.49,139.39 84.65,139.44 84.81,139.49 84.96,139.58 85.10,139.67 85.22,139.79 85.34,139.91 85.43,140.05 85.51,140.20 85.56,140.36 85.61,140.52 85.62,140.69 85.63,140.86 85.60,141.03 85.57,141.19 85.50,141.35 85.43,141.50 85.32,141.63 85.21,141.77 85.08,141.87 84.95,141.97 84.79,142.04 84.64,142.11 82.19,143.71 79.74,145.31 77.14,146.81 74.53,148.31 71.55,149.88 68.57,151.45 65.51,153.23 62.45,155.01 59.78,156.68 57.11,158.34 54.78,159.53 52.44,160.73 50.61,161.88 48.77,163.03 47.63,164.02 46.48,165.02 45.66,166.07 44.84,167.12 44.31,168.76 43.79,170.41 43.97,171.96 44.15,173.52 44.78,174.54 45.40,175.57 46.44,176.95 47.49,178.32 48.98,179.85 50.48,181.38 52.24,182.99 54.01,184.60 55.84,185.95 57.66,187.30 59.77,188.56 61.88,189.82 64.14,191.06 66.40,192.29 68.68,193.26 70.95,194.23 73.29,195.11 75.62,195.98 77.83,197.08 80.04,198.17 81.88,199.07 83.71,199.97 86.61,200.89 89.52,201.82 89.75,201.95 89.98,202.08 90.16,202.28 90.33,202.47 90.44,202.71 90.54,202.96 90.57,203.22 90.59,203.48 90.53,203.74 90.46,203.99 90.32,204.22 90.18,204.44 89.98,204.60 89.77,204.77 89.53,204.86 89.28,204.95 89.01,204.96 88.75,204.97 88.50,204.89 88.25,204.82 88.03,204.66 87.82,204.51 87.66,204.30 87.51,204.08 87.43,203.83 87.35,203.58 87.36,203.32 87.36,203.05 87.45,202.81 87.54,202.56 87.71,202.35 87.87,202.15 88.09,202.00 88.32,201.86 88.57,201.80 88.83,201.73 89.09,201.75 89.35,201.77 89.59,201.88 89.84,201.98 90.03,202.15 90.23,202.33 90.36,202.56 90.49,202.79 90.54,203.05 90.59,203.30 90.56,203.57 90.52,203.83 90.41,204.06 90.29,204.30 90.11,204.49 89.92,204.67 89.68,204.79 89.45,204.91 89.19,204.95 88.93,204.98 88.67,204.93 88.41,204.89 88.41,204.89 88.41,204.89 85.44,203.68 82.47,202.48 80.65,201.56 78.83,200.65 76.74,199.63 74.65,198.62 72.25,197.75 69.85,196.89 67.43,195.90 65.01,194.92 62.67,193.71 60.33,192.51 58.06,191.25 55.78,189.98 53.75,188.63 51.73,187.28 49.79,185.73 47.86,184.19 46.02,182.62 44.18,181.04 42.76,179.41 41.34,177.77 40.46,176.01 39.58,174.25 39.48,172.77 39.37,171.29 40.18,169.17 40.98,167.04 41.63,165.95 42.28,164.86 43.45,163.73 44.61,162.59 45.98,161.67 47.34,160.75 49.27,159.53 51.20,158.31 53.43,157.16 55.65,156.01 58.34,154.31 61.03,152.61 64.13,150.77 67.23,148.93 70.14,147.36 73.05,145.78 75.71,144.19 78.37,142.59 80.07,141.72 81.77,140.85 82.80,140.14 83.82,139.42 83.99,139.39 84.15,139.37 84.32,139.38 84.49,139.39 84.65,139.44 84.81,139.49 84.96,139.58 85.10,139.67 85.22,139.79 85.34,139.91 85.43,140.05 85.51,140.20 85.56,140.36 85.61,140.52 85.62,140.69 85.63,140.86 85.60,141.03 85.57,141.19 85.50,141.35 85.43,141.50 85.32,141.63 85.21,141.77 85.08,141.87 84.95,141.97 84.79,142.04 84.64,142.11 84.23,140.82 83.82,139.52 84.00,139.49 84.19,139.46 84.37,139.47 84.56,139.48 84.73,139.54 84.91,139.60 85.07,139.69 85.23,139.79 85.36,139.92 85.49,140.05 85.58,140.21 85.68,140.37 85.73,140.55 85.78,140.73 85.79,140.91 85.80,141.10 85.77,141.28 85.73,141.46 85.66,141.63 85.58,141.80 85.46,141.95 85.35,142.09 85.20,142.20 85.06,142.32 84.89,142.39 84.72,142.47 83.12,142.65 81.53,142.82 79.53,143.44 77.54,144.05 75.25,145.04 72.96,146.03 70.57,146.63 68.19,147.24 65.70,148.14 63.22,149.03 60.91,150.14 58.59,151.25 56.05,152.13 53.51,153.01 51.08,154.05 48.65,155.09 46.29,155.82 43.92,156.54 41.51,157.11 39.10,157.67 37.05,157.75 35.01,157.84 33.44,157.81 31.88,157.79 30.34,157.73 28.79,157.68 27.31,157.58 25.82,157.47 24.58,156.81 23.34,156.15 23.15,156.25 22.95,156.35 22.74,156.41 22.53,156.46 22.31,156.47 22.09,156.47 21.88,156.42 21.66,156.37 21.47,156.27 21.27,156.17 21.11,156.02 20.94,155.88 20.81,155.70 20.69,155.52 20.61,155.32 20.53,155.11 20.50,154.90 20.47,154.68 20.49,154.46 20.52,154.24 20.59,154.04 20.67,153.83 20.79,153.65 20.91,153.47 21.08,153.32 21.24,153.17 21.87,152.56 22.50,151.96 23.51,151.41 24.52,150.87 26.47,150.06 28.41,149.25 30.77,148.41 33.12,147.58 35.93,146.71 38.74,145.84 42.07,144.88 45.39,143.93 48.98,142.76 52.58,141.58 56.16,140.44 59.75,139.30 62.92,138.22 66.09,137.14 69.64,136.27 73.18,135.40 76.68,134.45 80.19,133.50 83.67,132.36 87.16,131.22 90.09,130.16 93.02,129.11 95.47,128.35 97.92,127.59 99.70,127.02 101.49,126.46 103.02,126.56 104.56,126.66 104.75,126.59 104.95,126.52 105.16,126.50 105.37,126.48 105.58,126.51 105.78,126.54 105.98,126.62 106.17,126.69 106.34,126.82 106.51,126.94 106.65,127.10 106.78,127.26 106.87,127.45 106.97,127.63 107.01,127.84 107.06,128.04 107.05,128.25 107.05,128.46 106.99,128.66 106.94,128.87 106.84,129.05 106.74,129.23 106.60,129.39 106.45,129.54 106.28,129.65 106.10,129.77 105.88,129.93 105.65,130.09 104.47,130.54 103.28,130.99 101.26,131.68 99.24,132.37 96.36,132.90 93.48,133.44 89.94,134.14 86.40,134.85 81.73,135.99 77.05,137.13 71.53,138.17 66.02,139.20 59.94,140.57 53.85,141.95 48.25,142.98 42.65,144.01 37.40,145.38 32.14,146.74 27.84,147.76 23.53,148.79 19.89,149.52 16.25,150.26 12.99,150.86 9.73,151.45 7.22,151.66 4.71,151.87 2.75,152.16 0.78,152.46 -0.83,152.47 -2.45,152.48 -3.58,152.41 -4.71,152.35 -5.78,152.24 -6.84,152.13 -7.90,151.69 -8.96,151.25 -9.37,150.23 -9.78,149.20 -9.01,148.16 -8.24,147.11 -7.17,146.68 -6.10,146.25 -4.49,145.73 -2.88,145.21 -0.69,144.31 1.49,143.42 4.40,142.44 7.31,141.46 10.97,140.22 14.63,138.98 18.89,137.71 23.14,136.44 27.77,135.09 32.40,133.74 37.34,132.22 42.28,130.70 47.06,128.73 51.85,126.75 56.12,124.85 60.39,122.95 63.60,121.19 66.80,119.42 68.93,118.09 71.06,116.76 72.76,115.63 74.45,114.50 75.68,114.49 76.90,114.48 77.94,115.60 78.98,116.72 77.32,118.28 75.66,119.83 74.25,120.32 72.83,120.81 70.68,121.65 68.53,122.49 65.69,123.36 62.85,124.24 58.96,125.19 55.07,126.15 50.69,127.34 46.32,128.52 41.43,129.69 36.55,130.85 31.51,131.97 26.47,133.09 21.67,134.08 16.86,135.08 11.86,136.38 6.87,137.67 2.25,138.52 -2.36,139.37 -6.50,140.30 -10.63,141.24 -14.08,141.23 -17.53,141.21 -20.81,141.14 -24.09,141.07 -27.02,140.82 -29.95,140.57 -32.11,140.00 -34.27,139.43 -36.38,138.92 -38.49,138.40 -40.04,137.31 -41.58,136.23 -41.76,135.14 -41.93,134.05 -40.65,132.71 -39.36,131.38 -38.21,131.10 -37.05,130.83 -34.86,129.87 -32.68,128.91 -29.66,127.73 -26.65,126.56 -22.44,125.46 -18.23,124.37 -13.14,122.88 -8.05,121.39 -2.42,119.47 3.19,117.55 9.34,115.77 15.50,113.98 21.45,111.94 27.40,109.89 33.40,107.77 39.40,105.65 44.81,103.96 50.22,102.27 54.96,100.48 59.69,98.69 62.97,97.17 66.25,95.64 67.91,94.99 69.57,94.35 71.79,94.04 74.01,93.74 74.81,94.65 75.60,95.55 74.23,96.92 72.87,98.29 70.83,98.89 68.80,99.49 65.63,100.37 62.47,101.24 58.31,102.21 54.15,103.17 49.19,104.35 44.23,105.54 38.94,106.70 33.65,107.86 28.94,108.40 24.22,108.94 19.39,109.65 14.57,110.37 11.52,110.38 8.47,110.39 5.58,110.36 2.69,110.32 0.13,110.14 -2.42,109.95 -4.06,109.45 -5.69,108.95 -7.56,108.42 -9.42,107.89 -10.33,106.67 -11.25,105.45 -11.08,104.36 -10.91,103.26 -10.02,102.52 -9.13,101.77 -7.80,101.27 -6.47,100.78 -4.49,99.91 -2.52,99.05 0.32,98.13 3.16,97.22 6.19,96.11 9.23,95.00 12.47,94.05 15.71,93.10 19.14,91.93 22.57,90.75 26.25,89.63 29.94,88.51 34.42,86.93 38.89,85.35 44.00,83.83 49.10,82.30 54.13,80.89 59.16,79.47 63.93,78.35 68.70,77.23 72.45,76.24 76.21,75.26 78.65,74.61 81.09,73.96 82.59,74.02 84.10,74.07 84.30,74.00 84.50,73.92 84.72,73.89 84.94,73.87 85.15,73.90 85.37,73.92 85.57,74.00 85.77,74.08 85.95,74.20 86.13,74.33 86.27,74.49 86.42,74.65 86.52,74.84 86.62,75.04 86.67,75.25 86.72,75.46 86.72,75.68 86.72,75.89 86.66,76.10 86.61,76.32 86.51,76.51 86.41,76.70 86.26,76.86 86.12,77.02 85.94,77.15 85.76,77.27 85.83,77.23 85.90,77.19 84.87,77.66 83.83,78.13 82.34,78.27 80.85,78.40 78.40,78.98 75.95,79.56 72.82,80.38 69.68,81.21 66.11,82.07 62.54,82.93 58.98,83.87 55.41,84.80 51.77,85.95 48.13,87.10 44.46,88.16 40.78,89.22 36.34,90.65 31.90,92.08 27.44,93.26 22.97,94.43 18.39,95.55 13.80,96.66 9.31,97.65 4.83,98.63 1.09,98.70 -2.63,98.77 -4.96,98.86 -7.28,98.94 -9.01,98.89 -10.75,98.84 -12.40,98.15 -14.06,97.46 -14.27,97.53 -14.47,97.60 -14.69,97.62 -14.91,97.64 -15.12,97.60 -15.34,97.57 -15.54,97.49 -15.74,97.40 -15.91,97.27 -16.09,97.14 -16.22,96.97 -16.36,96.80 -16.46,96.61 -16.55,96.41 -16.59,96.20 -16.64,95.98 -16.63,95.77 -16.62,95.55 -16.56,95.34 -16.50,95.13 -16.39,94.94 -16.29,94.75 -16.14,94.60 -15.99,94.44 -15.80,94.32 -15.62,94.20 -15.45,94.07 -15.28,93.94 -14.18,93.54 -13.08,93.15 -11.35,92.69 -9.63,92.24 -6.81,91.57 -4.00,90.90 -0.06,89.87 3.87,88.83 8.41,87.44 12.96,86.05 17.60,84.97 22.24,83.89 27.32,82.41 32.41,80.93 36.84,79.61 41.28,78.29 45.86,76.80 50.44,75.31 54.69,74.00 58.94,72.68 62.65,71.18 66.35,69.68 69.71,68.33 73.07,66.98 75.61,66.00 78.15,65.02 80.37,64.50 82.58,63.98 82.77,63.92 82.96,63.86 83.16,63.84 83.37,63.83 83.57,63.86 83.76,63.90 83.95,63.98 84.13,64.06 84.30,64.18 84.46,64.30 84.58,64.46 84.71,64.62 84.80,64.80 84.88,64.98 84.92,65.18 84.96,65.38 84.95,65.58 84.94,65.78 84.88,65.98 84.83,66.17 84.72,66.34 84.62,66.52 84.48,66.66 84.34,66.81 84.17,66.91 84.00,67.02 84.03,67.07 84.07,67.12 82.52,67.80 80.98,68.47 77.99,69.33 75.00,70.19 71.25,71.11 67.50,72.04 62.93,73.14 58.36,74.24 53.09,75.18 47.82,76.13 41.84,77.26 35.85,78.40 29.83,79.43 23.81,80.47 18.30,81.25 12.78,82.03 7.74,82.77 2.69,83.51 -1.39,83.56 -5.49,83.61 -8.70,83.66 -11.90,83.70 -14.11,83.65 -16.32,83.60 -17.94,83.29 -19.56,82.97 -21.39,82.61 -23.21,82.24 -24.44,81.43 -25.67,80.62 -24.24,78.97 -22.81,77.32 -21.55,76.96 -20.30,76.61 -17.73,76.11 -15.17,75.62 -11.86,75.00 -8.55,74.38 -4.46,73.45 -0.38,72.52 4.41,71.41 9.20,70.30 13.99,69.31 18.77,68.32 24.14,67.08 29.51,65.84 34.63,64.53 39.76,63.23 44.90,61.77 50.04,60.31 55.08,59.07 60.11,57.83 64.57,56.52 69.03,55.21 72.91,54.36 76.79,53.50 80.17,52.59 83.55,51.68 85.46,51.32 87.38,50.95 88.85,50.79 90.33,50.63 91.79,50.87 93.25,51.11 93.44,51.10 93.63,51.09 93.81,51.13 94.00,51.16 94.17,51.25 94.34,51.33 94.49,51.44 94.63,51.56 94.75,51.71 94.86,51.86 94.93,52.04 95.01,52.21 95.04,52.39 95.07,52.58 95.06,52.77 95.04,52.96 94.98,53.13 94.92,53.31 94.82,53.47 94.72,53.63 94.59,53.76 94.45,53.89 94.29,53.99 94.13,54.08 93.95,54.14 93.76,54.19 93.06,54.23 92.35,54.27 90.25,54.62 88.14,54.97 84.64,55.82 81.15,56.68 76.23,57.59 71.30,58.50 65.14,59.54 58.99,60.59 52.45,62.00 45.92,63.40 39.27,64.52 32.63,65.63 26.46,67.20 20.30,68.77 14.49,69.73 8.69,70.68 3.67,71.27 -1.35,71.86 -5.08,72.12 -8.82,72.37 -11.59,72.36 -14.37,72.35 -16.31,72.23 -18.26,72.11 -19.88,72.10 -21.50,72.10 -22.99,71.68 -24.47,71.26 -24.68,71.34 -24.88,71.42 -25.10,71.45 -25.31,71.48 -25.53,71.46 -25.74,71.43 -25.95,71.36 -26.15,71.28 -26.33,71.16 -26.51,71.04 -26.66,70.88 -26.81,70.72 -26.91,70.53 -27.01,70.34 -27.07,70.13 -27.12,69.92 -27.13,69.70 -27.13,69.48 -27.08,69.27 -27.03,69.06 -26.93,68.86 -26.83,68.67 -26.69,68.50 -26.55,68.34 -26.37,68.21 -26.20,68.09 -26.23,68.08 -26.27,68.08 -25.24,67.62 -24.22,67.15 -22.67,66.94 -21.13,66.73 -18.47,65.98 -15.81,65.23 -12.39,64.59 -8.98,63.94 -4.59,62.95 -0.20,61.95 4.58,61.26 9.38,60.57 14.85,59.47 20.32,58.38 25.69,57.44 31.06,56.50 36.54,55.95 42.03,55.39 46.96,54.65 51.90,53.92 55.93,53.32 59.96,52.72 63.81,51.88 67.67,51.04 69.80,50.84 71.94,50.64 73.30,50.45 74.67,50.26 75.76,50.35 76.85,50.44 78.41,50.89 79.97,51.33 80.29,52.59 80.61,53.86 78.96,54.70 77.32,55.54 75.28,55.62 73.24,55.71 70.01,55.95 66.79,56.19 63.07,56.20 59.35,56.21 54.90,56.23 50.45,56.24 45.89,56.25 41.33,56.27 37.04,56.28 32.75,56.29 29.11,56.27 25.47,56.26 22.26,56.18 19.05,56.10 16.52,55.86 13.99,55.61 11.49,55.42 8.99,55.23 7.72,54.70 6.44,54.17 4.91,53.47 3.37,52.76 3.15,52.85 2.92,52.94 2.69,52.97 2.45,53.00 2.21,52.98 1.98,52.95 1.75,52.87 1.53,52.79 1.33,52.66 1.13,52.53 0.97,52.35 0.81,52.18 0.69,51.97 0.58,51.76 0.51,51.53 0.45,51.30 0.45,51.06 0.44,50.82 0.50,50.59 0.55,50.35 0.66,50.14 0.76,49.93 0.92,49.74 1.07,49.56 1.27,49.42 1.46,49.28 3.01,48.56 4.57,47.84 5.96,47.45 7.35,47.07 9.46,46.46 11.56,45.86 13.50,45.59 15.44,45.32 17.61,44.59 19.79,43.86 22.09,43.26 24.39,42.67 27.18,41.80 29.97,40.93 32.78,39.98 35.58,39.03 38.50,37.85 41.41,36.68 44.08,35.53 46.75,34.37 49.64,33.37 52.53,32.36 55.62,31.12 58.71,29.87 61.37,28.54 64.03,27.21 65.81,26.47 67.59,25.72 68.96,25.16 70.32,24.60 72.13,24.66 73.93,24.71 74.16,24.71 74.39,24.72 74.61,24.77 74.83,24.83 75.03,24.94 75.24,25.05 75.41,25.20 75.58,25.36 75.70,25.55 75.83,25.74 75.91,25.95 75.99,26.17 76.02,26.40 76.04,26.63 76.01,26.85 75.98,27.08 75.90,27.30 75.81,27.51 75.68,27.70 75.55,27.89 75.37,28.04 75.20,28.19 75.00,28.29 74.79,28.40 74.57,28.45 74.34,28.50 73.15,28.68 71.96,28.86 70.53,28.96 69.11,29.06 66.75,29.58 64.40,30.11 60.99,30.79 57.58,31.48 53.44,32.00 49.30,32.52 44.35,33.20 39.39,33.88 33.73,34.39 28.08,34.91 22.23,35.57 16.38,36.23 10.67,36.70 4.96,37.17 -0.80,37.17 -6.58,37.18 -11.58,37.16 -16.58,37.13 -20.84,37.04 -25.11,36.94 -28.01,36.68 -30.92,36.41 -32.79,36.20 -34.67,35.99 -36.14,35.63 -37.61,35.26 -37.82,35.31 -38.03,35.37 -38.25,35.37 -38.47,35.37 -38.68,35.32 -38.90,35.26 -39.09,35.16 -39.29,35.06 -39.45,34.92 -39.62,34.77 -39.74,34.59 -39.87,34.41 -39.94,34.21 -40.02,34.00 -40.05,33.79 -40.08,33.57 -40.05,33.35 -40.03,33.13 -39.95,32.93 -39.87,32.72 -39.75,32.54 -39.62,32.36 -39.46,32.22 -39.30,32.07 -39.10,31.97 -38.91,31.86 -38.45,31.56 -37.98,31.25 -36.77,30.92 -35.55,30.59 -33.59,30.21 -31.62,29.83 -29.21,29.39 -26.79,28.96 -23.83,28.49 -20.86,28.02 -17.67,27.45 -14.48,26.89 -11.15,26.09 -7.83,25.29 -4.33,24.49 -0.84,23.70 2.55,22.92 5.94,22.13 9.01,21.40 12.08,20.68 15.23,19.47 18.38,18.25 21.50,17.04 24.61,15.83 27.67,14.64 30.73,13.45 33.58,12.34 36.43,11.23 38.60,10.23 40.77,9.23 42.28,8.88 43.79,8.53 44.91,8.26 46.02,7.99 47.35,7.91 48.69,7.82 48.91,7.81 49.13,7.79 49.35,7.84 49.57,7.88 49.77,7.97 49.97,8.06 50.14,8.20 50.32,8.33 50.45,8.51 50.59,8.68 50.68,8.89 50.77,9.09 50.81,9.31 50.85,9.53 50.83,9.75 50.82,9.97 50.75,10.18 50.69,10.39 50.57,10.58 50.45,10.77 50.30,10.93 50.14,11.08 49.95,11.20 49.76,11.31 49.55,11.38 49.34,11.44 48.28,11.52 47.23,11.61 45.56,11.92 43.89,12.23 41.69,12.62 39.48,13.01 36.50,13.35 33.53,13.70 30.29,13.95 27.06,14.20 23.34,14.23 19.61,14.25 16.22,14.28 12.83,14.30 9.68,14.30 6.53,14.30 3.92,14.23 1.31,14.15 -0.76,13.91 -2.85,13.67 -5.14,13.50 -7.42,13.33 -9.18,12.99 -10.94,12.66 -11.25,12.72 -11.56,12.79 -11.87,12.78 -12.19,12.77 -12.50,12.69 -12.80,12.60 -13.08,12.45 -13.36,12.29 -13.59,12.07 -13.82,11.85 -13.99,11.59 -14.17,11.32 -14.27,11.02 -14.37,10.72 -14.40,10.40 -14.43,10.09 -14.38,9.77 -14.34,9.46 -14.21,9.16 -14.09,8.87 -13.90,8.61 -13.72,8.36 -13.47,8.16 -13.23,7.95 -12.94,7.81 -12.66,7.67 -12.69,7.66 -12.71,7.65 -11.56,7.31 -10.41,6.96 -9.04,6.94 -7.66,6.92 -6.37,6.68 -5.08,6.45 -3.69,6.41 -2.29,6.36 -1.09,6.26 0.10,6.15 1.67,5.73 3.23,5.31 5.11,4.75 7.00,4.18 9.02,3.39 11.04,2.60 12.88,2.05 14.72,1.49 16.37,0.89 18.01,0.28 19.54,-0.50 21.08,-1.30 22.30,-1.97 23.52,-2.63 25.26,-3.29 26.99,-3.96 28.23,-3.96 29.46,-3.97 28.79,-2.07 28.11,-0.17 26.45,-0.13 24.78,-0.10 22.87,0.19 20.96,0.49 19.04,0.59 17.13,0.69 14.74,1.06 12.35,1.43 10.97,1.69 9.59,1.95 7.66,2.02 5.73,2.08 4.24,2.32 2.74,2.55 1.37,2.55 0,2.55 -0.30,2.51 -0.61,2.48 -0.90,2.37 -1.18,2.26 -1.44,2.08 -1.69,1.91 -1.89,1.68 -2.10,1.45 -2.24,1.17 -2.39,0.90 -2.46,0.60 -2.53,0.30 -2.53,-0.00 -2.53,-0.30 -2.46,-0.60 -2.39,-0.90 -2.24,-1.17 -2.10,-1.45 -1.89,-1.68 -1.69,-1.91 -1.44,-2.08 -1.18,-2.26 -0.89,-2.37 -0.61,-2.48 -0.30,-2.51 0.00,-2.55 0.00,-2.55 L 0,-2.55 Z"></path></g></svg>